<?xml version="1.0" encoding="utf-8"?>
<!-- Generator: Adobe Illustrator 24.1.2, SVG Export Plug-In . SVG Version: 6.00 Build 0)  -->
<svg version="1.1" id="Warstwa_3" xmlns="http://www.w3.org/2000/svg" xmlns:xlink="http://www.w3.org/1999/xlink" x="0px" y="0px"
	 viewBox="0 0 430 430" style="enable-background:new 0 0 430 430;" xml:space="preserve">
<style type="text/css">
	.st0{fill:#08a88a;}
	.st1{fill:#121331;}
	.st2{fill:none;}
	.st3{fill-opacity:0;}
</style>
<g>
	<path class="st0" d="M340.5,294.3c-0.04,0-0.09,0-0.13,0c-3.48-0.07-6.24-2.95-6.17-6.43c0.08-3.77,0.12-7.47,0.12-11.02
		c0-1.95-0.01-3.88-0.04-5.77c-0.04-3.48,2.74-6.33,6.22-6.38c3.44-0.03,6.33,2.74,6.38,6.22c0.02,1.94,0.04,3.91,0.04,5.92
		c0,3.63-0.04,7.42-0.12,11.27C346.73,291.56,343.92,294.3,340.5,294.3z M167.98,276.29c-2.82,0-5.39-1.91-6.11-4.78
		c-0.84-3.38,1.21-6.8,4.59-7.64c8.93-2.23,16.99-7.49,23.96-15.63c2.26-2.65,6.24-2.95,8.88-0.69c2.64,2.26,2.95,6.24,0.69,8.88
		c-8.7,10.17-18.96,16.79-30.48,19.66C169,276.23,168.48,276.29,167.98,276.29z M140.43,275.04c-0.73,0-1.46-0.13-2.19-0.39
		c-10.8-4-20.15-11.83-27.82-23.29c-1.93-2.89-1.16-6.81,1.74-8.74c2.89-1.93,6.81-1.16,8.74,1.74
		c6.16,9.21,13.46,15.43,21.72,18.48c3.26,1.21,4.93,4.83,3.72,8.1C145.4,273.47,142.99,275.04,140.43,275.04z M339.21,249.37
		c-3.22,0-5.96-2.45-6.27-5.72c-1.11-11.99-2.94-22.53-5.43-31.3c-0.95-3.35,0.99-6.83,4.34-7.78c3.35-0.95,6.83,0.99,7.78,4.34
		c2.74,9.65,4.65,20.64,5.85,33.58c0.32,3.46-2.23,6.53-5.69,6.85C339.6,249.36,339.4,249.37,339.21,249.37z M209.68,234.81
		c-0.85,0-1.71-0.17-2.54-0.54c-3.18-1.4-4.63-5.12-3.22-8.31c2.01-4.55,3.89-9.56,5.58-14.88c1.86-5.82,3.97-11.23,6.28-16.07
		c1.5-3.14,5.25-4.48,8.4-2.98c3.14,1.5,4.48,5.25,2.98,8.4c-2.06,4.33-3.96,9.21-5.65,14.49c-1.83,5.74-3.87,11.17-6.06,16.13
		C214.41,233.4,212.1,234.81,209.68,234.81z M103.66,228.98c-2.62,0-5.06-1.65-5.96-4.26c-3.3-9.64-6.04-20.73-8.14-32.96
		c-0.59-3.43,1.71-6.69,5.14-7.27c3.43-0.59,6.69,1.71,7.28,5.14c1.99,11.57,4.56,22,7.64,31.01c1.13,3.29-0.63,6.87-3.92,8
		C105.03,228.87,104.34,228.98,103.66,228.98z M321.98,191.65c-1.95,0-3.87-0.9-5.1-2.6c-5.87-8.08-13.24-13.26-23.18-16.31
		c-3.33-1.02-5.2-4.54-4.18-7.87c1.02-3.33,4.54-5.2,7.87-4.18c12.52,3.84,22.23,10.69,29.68,20.95c2.05,2.81,1.42,6.75-1.39,8.8
		C324.56,191.25,323.27,191.65,321.98,191.65z M237.77,181.52c-1.76,0-3.51-0.73-4.76-2.17c-2.28-2.63-2-6.61,0.63-8.89
		c9.32-8.1,20.72-12.59,33.88-13.36c3.5-0.2,6.45,2.45,6.66,5.92c0.2,3.47-2.45,6.45-5.92,6.66c-10.46,0.61-19.08,3.98-26.36,10.3
		C240.7,181.01,239.23,181.52,237.77,181.52z M92.24,169.23c-3.23,0-5.98-2.47-6.27-5.75c-0.92-10.37-1.51-21.59-1.77-33.35
		c-0.08-3.48,2.68-6.36,6.16-6.44c3.43-0.1,6.36,2.68,6.44,6.16c0.25,11.49,0.83,22.43,1.73,32.52c0.31,3.47-2.25,6.52-5.72,6.83
		C92.62,169.23,92.43,169.23,92.24,169.23z"/>
	<path class="st2" d="M88.5,117c-7.18,0-13,1.82-13,9c0,7.18,5.82,17,13,17s13-2.82,13-10C101.5,125.82,95.68,117,88.5,117z
		 M340.5,279c-7.18,0-13,2.57-13,9.75s5.82,16.25,13,16.25s13-2.57,13-9.75S347.68,279,340.5,279z"/>
	<g>
		<path class="st0" d="M88.5,117c-7.18,0-13,1.82-13,9c0,7.18,5.82,17,13,17s13-2.82,13-10C101.5,125.82,95.68,117,88.5,117z
			 M340.5,279c-7.18,0-13,2.57-13,9.75s5.82,16.25,13,16.25s13-2.57,13-9.75S347.68,279,340.5,279z"/>
		<path class="st0" d="M340.5,311.3c-10.87,0-19.3-12.12-19.3-22.55c0-7.76,5.07-16.05,19.3-16.05c10.87,0,19.3,12.12,19.3,22.55
			C359.8,303.01,354.73,311.3,340.5,311.3z M340.5,285.3c-6.7,0-6.7,2.33-6.7,3.45c0,4.37,3.76,9.95,6.7,9.95
			c6.7,0,6.7-2.33,6.7-3.45C347.2,290.88,343.44,285.3,340.5,285.3z M88.5,149.3c-10.87,0-19.3-12.52-19.3-23.3
			c0-4.6,1.88-15.3,19.3-15.3c11.05,0,19.3,11.77,19.3,22.3C107.8,142.9,100.22,149.3,88.5,149.3z M88.5,123.3
			c-6.7,0-6.7,1.5-6.7,2.7c0,4.86,4.12,10.7,6.7,10.7c6.7,0,6.7-2.59,6.7-3.7C95.2,128.65,91.51,123.3,88.5,123.3z"/>
	</g>
	<path class="st1" d="M153,380.3c-0.68,0-1.36-0.11-2.02-0.33l-116.5-39.5c-2.55-0.87-4.27-3.26-4.28-5.96l-0.5-278
		c0-2.03,0.97-3.94,2.63-5.13s3.77-1.5,5.7-0.85l116.5,39.5c2.55,0.87,4.27,3.26,4.28,5.96l0.5,278c0,2.03-0.97,3.94-2.63,5.13
		C155.59,379.9,154.3,380.3,153,380.3z M42.79,329.98l103.89,35.23l-0.48-264.69L42.32,65.29L42.79,329.98z"/>
	<path class="st1" d="M394,380.3c-0.68,0-1.36-0.11-2.02-0.33l-116.5-39.5c-2.55-0.87-4.27-3.26-4.28-5.96l-0.5-278
		c0-2.03,0.97-3.94,2.63-5.13s3.77-1.5,5.7-0.85l116.5,39.5c2.55,0.87,4.27,3.26,4.28,5.96l0.5,278c0,2.03-0.97,3.94-2.63,5.13
		C396.59,379.9,395.3,380.3,394,380.3z M283.79,329.98l103.89,35.23l-0.48-264.69L283.32,65.29L283.79,329.98z"/>
	<path class="st1" d="M153.5,379.8c-1.32,0-2.62-0.41-3.71-1.21c-1.62-1.18-2.58-3.07-2.59-5.08l-0.5-278
		c0-2.75,1.77-5.18,4.39-6.01l124-39.5c1.91-0.61,4-0.27,5.63,0.91s2.58,3.07,2.59,5.08l0.5,278c0,2.75-1.77,5.18-4.39,6.01
		l-124,39.5C154.79,379.7,154.14,379.8,153.5,379.8z M159.31,100.1l0.48,264.78l111.41-35.49l-0.48-264.78L159.31,100.1z"/>
</g>
</svg>
